<svg xmlns="http://www.w3.org/2000/svg" width="491" height="140" viewBox="0 0 491 140">
  <g id="Сгруппировать_433" data-name="Сгруппировать 433" transform="translate(-211 -1154)">
    <path id="Контур_12" data-name="Контур 12" d="M45.055-14.971,52.041-51.9H62.7L51.186,0H40.421L31.973-34.718,23.525,0H12.761L1.248-51.9H11.905l7.022,36.856L27.482-51.9h9.054ZM99.7-22.492H79.167v13.9h24.1V0H68.473V-51.9h34.718v8.662H79.167v12.369H99.7ZM109.536,0V-51.9h18.179q9.446,0,14.329,3.618t4.883,10.6a11.726,11.726,0,0,1-1.96,6.719,11.324,11.324,0,0,1-5.454,4.26A10.956,10.956,0,0,1,145.8-22.67a11.908,11.908,0,0,1,2.3,7.414q0,7.485-4.776,11.335T129.71,0Zm10.693-22.6V-8.59h9.161a8.84,8.84,0,0,0,5.9-1.8,6.173,6.173,0,0,0,2.121-4.972q0-7.129-7.378-7.236Zm0-7.557h7.913q8.091-.143,8.091-6.452,0-3.529-2.05-5.079t-6.469-1.551h-7.485Zm76.636,12.868Q196.259-8.911,190.68-4.1T175.977.713q-9.98,0-15.7-6.719t-5.721-18.446v-3.172a31.11,31.11,0,0,1,2.638-13.188,19.767,19.767,0,0,1,7.539-8.751,21.118,21.118,0,0,1,11.388-3.048q8.982,0,14.472,4.812t6.345,13.509H186.243q-.392-5.026-2.8-7.289t-7.325-2.263q-5.347,0-8,3.832t-2.727,11.887V-24.2q0,8.412,2.549,12.3t8.038,3.885q4.955,0,7.4-2.263t2.8-7ZM246.125,0H235.432V-22.242H214.58V0H203.887V-51.9H214.58v21.03h20.852V-51.9h10.693Zm39.28-10.693H266.657L263.092,0H251.722l19.319-51.9h9.909L300.376,0H289.006Zm-15.862-8.662h12.975L276-38.781ZM316.595,0H305.9V-51.9h10.693Zm52.112,0H358.014L337.2-34.147V0H326.5V-51.9H337.2L358.049-17.68V-51.9h10.658Z" transform="translate(245 1253)" fill="#fff"/>
    <g id="Прямоугольник_314" data-name="Прямоугольник 314" transform="translate(211 1154)" fill="none" stroke="#fff" stroke-width="14">
      <rect width="448" height="140" stroke="none"/>
      <rect x="7" y="7" width="434" height="126" fill="none"/>
    </g>
    <circle id="Эллипс_1" data-name="Эллипс 1" cx="15" cy="15" r="15" transform="translate(672 1264)" fill="#fff"/>
  </g>
</svg>
